<svg width="106" height="61.00000000000001" xmlns="http://www.w3.org/2000/svg" xml:space="preserve" version="1.2">
 <g display="inline" class="layer">
  <title>Layer 1</title>
  <g id="svg_1">
   <g id="svg_2">
    <path id="svg_5" fill="#FFB03B" d="m97.13396,52.65c-2.86,2.94 -6.16,5.36 -10.4,6.12c-0.1,0.02 -0.21,-0.01 -0.29,-0.08c-0.35,-0.3 -0.83,-0.59 -1.27,-0.94c-0.44,-0.35 -0.87,-0.78 -1.04,-1.4l0.02,-0.24c0.6,-1.25 0.89,-2.82 1.24,-4.37c0.34,-1.55 0.75,-3.1 1.67,-4.32c0.57,-0.76 1.36,-1.36 2.4,-1.74c0,-0.14 0.01,-0.28 0.01,-0.42c0,-0.98 -0.06,-2.02 -0.06,-3.08c0,-1.08 0.06,-2.19 0.3,-3.26l0.04,-0.1c1.59,-2.82 4.15,-4.76 6.22,-7.01c1.5,-2.99 3.21,-5.89 4.22,-9c0.26,-4.23 0.13,-8.51 0.34,-12.81c-0.09,-0.02 -0.18,-0.03 -0.27,-0.03c-0.52,0 -1.12,0.32 -1.74,0.74c-0.62,0.43 -1.26,0.94 -1.97,1.2c-1.23,0.46 -2.43,1.11 -3.75,1.55l-0.05,0.01c-1.01,0.17 -2.01,0.52 -3.11,0.66l-0.08,0c-1.15,-0.11 -2.33,-0.39 -3.31,-1.13l-0.13,0.12c0.44,0.91 1.16,1.54 2.07,1.95c0.98,0.45 2.16,0.63 3.34,0.63c0.84,0 1.68,-0.1 2.43,-0.25c0.37,-0.13 0.75,-0.37 1.17,-0.59c0.42,-0.23 0.9,-0.44 1.45,-0.45c0.14,0 0.26,0.08 0.32,0.2c0.13,0.25 0.18,0.51 0.18,0.76c-0.01,0.42 -0.13,0.81 -0.25,1.17c-0.12,0.36 -0.24,0.7 -0.28,0.99l-0.02,0.07c-1.73,4.63 -5.87,7.91 -10.59,8.96l-0.1,0.01c-0.19,-0.01 -0.38,-0.03 -0.56,-0.04l-0.11,-0.03c-0.51,-0.24 -1.11,-0.53 -1.51,-1.09l-0.03,-0.05c-0.52,-1.05 -0.82,-2.4 -0.82,-3.74c0,-1.11 0.21,-2.21 0.71,-3.14c0.13,-0.23 0.31,-0.37 0.45,-0.49c0.15,-0.12 0.25,-0.22 0.3,-0.29l0.04,-0.17c-0.01,-0.03 -0.02,-0.08 -0.03,-0.12c-0.23,-0.02 -0.46,-0.04 -0.7,-0.04c-3.73,-0.01 -7.37,2.29 -11.2,3.19l-0.21,-0.01c-1.74,-0.65 -2.8,-1.99 -4.06,-3.01c-0.61,-0.2 -1.23,-0.27 -1.89,-0.27c-0.98,0 -2,0.15 -3.06,0.15c-0.27,0 -0.54,-0.01 -0.81,-0.03l-0.04,-0.01c-0.12,-0.02 -0.22,-0.09 -0.28,-0.14l-0.15,-0.15c-0.05,-0.06 -0.1,-0.1 -0.15,-0.13c-1.07,0.19 -2.06,0.69 -3.08,1.24c-1.02,0.56 -2.08,1.16 -3.28,1.46c-1.41,0.97 -2.96,1.61 -4.24,2.55l-0.06,0.04c-0.27,0.12 -0.5,0.1 -0.67,0.1c-0.14,0 -0.21,0.02 -0.26,0.04c-0.14,0.2 -0.2,0.42 -0.2,0.67c0,0.61 0.34,1.38 0.55,2.09c1.11,1.64 2.03,3.38 3.37,4.73c2.37,1.57 4.99,2.84 7.75,2.84c0.5,0 1,-0.04 1.51,-0.13c1.45,-0.98 3.17,-1.15 4.68,-1.55c0.29,-0.25 0.5,-0.59 0.67,-1c0.19,-0.44 0.36,-0.92 0.62,-1.38l0.04,-0.05c1.64,-1.81 3.66,-3.13 4.85,-5.08c0.09,-0.27 0.12,-0.64 0.31,-1.01c0.04,-0.1 0.13,-0.16 0.23,-0.19c0.81,-0.2 1.68,-0.64 2.66,-0.73c0.17,-0.01 0.32,0.1 0.37,0.27c0.11,0.43 0.15,0.87 0.15,1.33c0,1.16 -0.25,2.38 -0.25,3.44c0.06,0.9 0.16,1.76 0.23,2.68c0.1,0.18 0.15,0.36 0.2,0.51c0.03,0.09 0.05,0.17 0.08,0.23c0.1,-0.01 0.2,-0.04 0.29,-0.04c0.26,0 0.5,0.07 0.69,0.19c0.2,0.11 0.34,0.27 0.46,0.43c0.2,0.26 0.35,0.52 0.53,0.75c0.2,-0.03 0.42,-0.09 0.66,-0.17c0.28,-0.1 0.59,-0.19 0.95,-0.21c1.36,-0.63 2.77,-0.98 4.03,-1.59l0.15,-0.04c0.14,0 0.41,-0.1 0.69,-0.22c0.29,-0.12 0.6,-0.26 0.96,-0.27c0.29,-0.01 0.64,0.15 0.83,0.46c0.08,0.12 0.08,0.27 0.01,0.39c-2.63,4.25 -4.69,8.92 -6.67,13.56c0.09,0.55 0.13,1.1 0.13,1.64c0,2.98 -1.13,5.78 -1.13,8.59c0,0.51 0.04,1.02 0.13,1.54c0.33,1.13 1.2,2 2.28,2.5l0.17,0.17c0.17,0.35 0.22,0.7 0.29,0.99c0.07,0.3 0.15,0.52 0.32,0.7c0.62,0.62 1.32,0.8 2.14,0.8c1.22,0.01 2.61,-0.44 3.96,-0.45c0.07,0 0.14,0 0.2,0.01c5.57,-3.01 10.31,-7.51 13.49,-12.93c0.3,-0.6 0.6,-1.2 0.91,-1.81l0,0c0.1,-0.26 0.25,-0.51 0.37,-0.76c0.13,-0.25 0.22,-0.5 0.21,-0.64c0,-0.09 -0.02,-0.14 -0.08,-0.19c-0.03,-0.01 -0.06,-0.01 -0.09,-0.01c-2.48,2.9 -4.89,6.31 -7.71,9.2zm-33.41,-23.05c-0.06,0.09 -0.15,0.14 -0.26,0.14c-0.16,0.02 -0.31,0.02 -0.47,0.02c-2.37,0.01 -4.61,-1.37 -5.45,-3.73c-0.15,-0.39 -0.21,-0.79 -0.21,-1.17c0,-1.2 0.65,-2.25 1.55,-2.98c0.91,-0.75 2.07,-1.21 3.19,-1.26l0.23,0.07c1.66,1.19 2.54,3.29 2.54,5.32c0,1.3 -0.36,2.58 -1.12,3.59z"/>
    <path id="svg_6" fill="#FBB03B" d="m49.14396,35.39l0.17,-0.03c0.79,0.06 1.56,0.3 2.3,0.51c0.74,0.21 1.46,0.4 2.12,0.4c0.1,0 0.19,-0.02 0.29,-0.03c-0.19,-0.85 -0.67,-1.64 -1.3,-2.39c-0.73,-0.86 -1.61,-1.67 -2.35,-2.47l-0.02,-0.02c-0.52,-0.67 -1.17,-1.28 -1.83,-1.88l0,0c-1.58,-1.5 -3.7,-2.72 -5.24,-4.38c-0.11,-0.12 -0.12,-0.31 -0.02,-0.45c0.54,-0.71 1.38,-1.25 2.3,-1.37c0.43,-0.24 0.79,-0.62 1.18,-1.03c0.38,-0.38 0.79,-0.78 1.35,-1.03c0.33,-0.55 0.82,-0.97 1.29,-1.36c0.5,-0.41 0.99,-0.8 1.27,-1.22c0.18,-0.28 0.29,-0.55 0.29,-0.88l-0.01,-0.09c-0.54,-0.96 -1.58,-1.61 -2.63,-2.17l-0.02,-0.01c-0.39,-0.23 -1.02,-0.4 -1.7,-0.5c-0.69,-0.09 -1.43,-0.12 -2.1,-0.12c-0.55,0 -1.05,0.02 -1.41,0.04c-0.35,0.02 -0.57,0.04 -0.57,0.04l-0.04,0l-0.08,0c-0.26,0 -0.51,0.04 -0.79,0.13l0,0c-0.1,0.03 -0.21,0.08 -0.34,0.15l0,0l-0.07,0.02c-0.21,0.11 -0.41,0.24 -0.58,0.39l-0.07,0.05c-0.58,0.29 -1.15,0.49 -1.54,0.82l-0.07,0.05c-1.84,0.88 -3.61,1.97 -5.52,2.83c-0.06,0.09 -0.1,0.22 -0.13,0.35c0.02,0.09 0.04,0.16 0.06,0.24l-0.02,0.18c-0.08,0.24 -0.22,0.42 -0.32,0.58c-0.11,0.15 -0.15,0.27 -0.15,0.33l0.01,0.02c0.07,0.02 0.13,0.04 0.21,0.04c0.21,0 0.48,-0.08 0.79,-0.18c0.3,-0.09 0.64,-0.21 1.02,-0.21c0.15,0 0.31,0.02 0.47,0.07c0.18,0.05 0.28,0.23 0.24,0.41c-0.61,2.94 -1.64,6.1 -1.64,9.07c0,1.55 0.28,3.03 1.02,4.43l0.04,0.02l0.17,0.03c0.02,-0.03 0.04,-0.06 0.06,-0.08c0.01,-0.12 0.03,-0.24 0.03,-0.31l0,-0.03l0,0c-0.04,-0.12 -0.01,-0.25 0.07,-0.34c0.82,-0.91 1.22,-2.08 1.55,-3.35c0.33,-1.27 0.58,-2.62 1.17,-3.84c0.08,-0.16 0.28,-0.24 0.45,-0.17c0.79,0.32 1.38,0.92 1.95,1.52c0.56,0.6 1.1,1.2 1.7,1.6l0.04,0.03c1.81,1.61 3.11,3.71 5.02,4.93l0.08,0.08c0.24,0.3 0.61,0.52 1.01,0.73l0.09,0c0.26,0 0.51,-0.05 0.75,-0.15zm-8.14,-13.48c-0.46,0.37 -1.02,0.62 -1.58,0.69c-0.11,0.01 -0.22,-0.03 -0.3,-0.11c-0.37,-0.41 -0.42,-0.92 -0.42,-1.36c0,-0.15 0.01,-0.29 0.02,-0.42c0.01,-0.16 0.12,-0.29 0.28,-0.32c0.24,-0.05 0.53,-0.19 0.85,-0.32c0.33,-0.13 0.68,-0.26 1.07,-0.26c0.28,0 0.59,0.08 0.85,0.29c0.1,0.07 0.15,0.2 0.14,0.33c-0.09,0.61 -0.46,1.11 -0.91,1.48z"/>
    <path id="svg_9" fill="#FBB03B" d="m28.06396,18.75c0.45,-1.92 0.68,-4.04 1.66,-5.95c0.04,-0.09 0.13,-0.16 0.23,-0.18c1.37,-0.32 2.85,-0.52 4.33,-0.52c2.56,0.01 3.84,0.21 5.91,1.7c0,0 2.21,-0.27 2.21,-0.4c0,-3.82 -1.73,-7.39 -3.78,-10.59l-0.11,-0.05c-0.2,0.47 -0.23,1.11 -0.28,1.81c-0.06,0.82 -0.16,1.74 -0.84,2.47l0,0c0,0 0,0 0,0.01s0,0 0,0l0,0c-0.49,0.54 -1.17,1.02 -2.01,1.03l-0.23,-0.01l-0.15,-0.06c-1.74,-1.16 -3.74,-1.42 -5.86,-1.42c-1.52,0 -3.1,0.14 -4.64,0.14c-0.66,0 -1.31,-0.03 -1.96,-0.1c-0.54,0.35 -1.14,0.48 -1.73,0.48c-1.15,0 -2.29,-0.42 -3.22,-0.62c-0.4,0.49 -0.8,1.14 -1.56,1.5l-0.11,0.03c-0.17,0.01 -0.34,0.02 -0.51,0.02c-1.69,-0.01 -3.48,-0.67 -5.02,-0.66c-1.1,0.01 -2.02,0.29 -2.82,1.33c-0.1,0.12 -0.26,0.17 -0.4,0.12c-1,-0.35 -2.04,-0.61 -3.05,-0.61c-0.41,0 -0.81,0.05 -1.2,0.15c-0.02,0.06 -0.04,0.13 -0.05,0.22c0.13,0.12 0.29,0.21 0.53,0.26c0.28,0.06 0.62,0.07 0.96,0.12l0.17,0.08c1.04,0.85 2.32,1.19 3.67,1.19c0.41,0 0.82,-0.03 1.23,-0.08l0.2,0.02c0.95,0.44 2.02,0.59 3.12,0.76c1.1,0.18 2.24,0.39 3.28,1.01l0.08,0.08c0.3,0.34 0.56,0.68 0.86,0.91c0.12,0.02 0.24,0.04 0.36,0.04c0.63,0 1.26,-0.27 1.93,-0.58c0.66,-0.3 1.36,-0.64 2.15,-0.64c0.14,0 0.28,0.01 0.43,0.04c0.15,0.02 0.27,0.14 0.29,0.3c0.18,1.34 0.05,2.78 0.19,4.02l0,0c0.33,2.1 0.36,4.27 0.37,6.43c0,0.56 -0.01,1.12 -0.01,1.67c0,4.2 0.15,8.31 2.28,11.85l0.08,0.01c0.06,0 0.11,-0.01 0.15,-0.02c1.47,-5.66 2.59,-11.47 2.86,-17.25l0.01,-0.06z"/>
   </g>
   <g id="svg_3">
    <path id="svg_17" d="m37.92396,1.6c2.17,3.34 4.01,7.14 3.88,11.26c0.02,0.12 0.06,0.28 0.1,0.44c-0.38,0.43 -1,0.26 -1.49,0.34c-0.03,-0.05 -0.05,-0.09 -0.08,-0.13c-1.98,-1.44 -4.49,-2 -7,-2c-1.44,0 -2.89,0.19 -4.24,0.51c-0.94,1.82 -1.17,3.91 -1.63,5.87c-0.27,5.86 -1.42,11.75 -2.91,17.48c-0.13,0.08 -0.3,0.12 -0.45,0.12c-0.12,0 -0.23,-0.02 -0.32,-0.05c-3.72,-6.03 -1.69,-13.55 -2.76,-20.23c-0.14,-1.29 -0.02,-2.73 -0.19,-4.01c-0.12,-0.02 -0.25,-0.03 -0.37,-0.03c-1.36,0 -2.62,1.22 -4.07,1.22c-0.17,0 -0.34,-0.02 -0.52,-0.05c-0.38,-0.28 -0.67,-0.67 -0.98,-1.03c-1.93,-1.17 -4.32,-0.81 -6.36,-1.75c-0.42,0.06 -0.85,0.09 -1.27,0.09c-1.41,0 -2.79,-0.35 -3.9,-1.27c-0.62,-0.09 -1.39,-0.05 -1.8,-0.59c-0.01,-0.25 0.05,-0.5 0.17,-0.68c0.48,-0.13 0.96,-0.19 1.44,-0.19c1.07,0 2.15,0.28 3.16,0.62c0.87,-1.13 1.95,-1.46 3.11,-1.46c1.63,0 3.43,0.66 5.03,0.66c0.16,0 0.31,-0.01 0.47,-0.02c0.7,-0.32 1.08,-1.02 1.56,-1.57c1.01,0.19 2.23,0.66 3.36,0.66c0.59,0 1.16,-0.13 1.65,-0.49c0.67,0.08 1.35,0.1 2.04,0.1c1.53,0 3.1,-0.13 4.64,-0.13c2.15,0 4.23,0.26 6.06,1.48c0.06,0 0.12,0.01 0.19,0.01c0.68,0 1.3,-0.42 1.74,-0.92c1.17,-1.26 0.43,-3.28 1.2,-4.49c0,0 0,0 0.01,0m62.56,7.42c-0.23,4.4 -0.08,8.78 -0.36,13.14c-1.03,3.2 -2.77,6.13 -4.28,9.14c-2.1,2.3 -4.66,4.23 -6.2,6.97c-0.51,2.28 -0.18,4.74 -0.24,6.93c-4.43,1.39 -3.67,6.84 -5.34,10.34c0.27,1.02 1.43,1.5 2.19,2.16c8.27,-1.49 12.94,-9.44 18.01,-15.32c0.04,-0.01 0.08,-0.01 0.12,-0.01c0.1,0 0.2,0.01 0.3,0.03c0.7,0.52 -0.14,1.47 -0.35,2.1c-0.31,0.6 -0.61,1.21 -0.92,1.82c-3.23,5.5 -8.05,10.07 -13.7,13.11c-0.1,-0.01 -0.19,-0.01 -0.29,-0.01c-1.27,0 -2.67,0.45 -3.96,0.45c-0.88,0 -1.71,-0.21 -2.41,-0.91c-0.47,-0.5 -0.39,-1.21 -0.67,-1.78c-1.16,-0.54 -2.12,-1.49 -2.48,-2.74c-0.68,-4.08 1.58,-7.88 0.86,-11.91c1.99,-4.66 4.06,-9.39 6.73,-13.7c-0.15,-0.22 -0.33,-0.29 -0.54,-0.29c-0.51,0 -1.14,0.46 -1.64,0.48c-1.33,0.65 -2.75,0.99 -4.09,1.62c0,0 -0.01,0 -0.01,0c-0.64,0 -1.22,0.38 -1.85,0.42c-0.55,-0.59 -0.71,-1.4 -1.53,-1.4c-0.14,0 -0.29,0.02 -0.47,0.07c-0.25,-0.3 -0.24,-0.72 -0.45,-1.04c-0.07,-0.94 -0.18,-1.82 -0.24,-2.76c0.01,-1.54 0.49,-3.29 0.11,-4.69c-0.87,0.07 -1.73,0.51 -2.6,0.72c-0.15,0.31 -0.19,0.68 -0.29,1.01c-1.25,2.05 -3.31,3.39 -4.91,5.16c-0.48,0.82 -0.64,1.9 -1.41,2.51c-1.62,0.44 -3.36,0.59 -4.75,1.57c-0.55,0.1 -1.09,0.15 -1.63,0.15c-2.89,0 -5.57,-1.33 -7.98,-2.92c-1.42,-1.42 -2.35,-3.21 -3.46,-4.85c-0.28,-0.99 -0.97,-2.27 -0.29,-3.18c0.31,-0.23 0.71,-0.05 1.04,-0.2c1.35,-0.99 2.92,-1.63 4.3,-2.59c2.34,-0.55 4.18,-2.38 6.57,-2.76c0.34,0.15 0.41,0.42 0.6,0.45c0.25,0.03 0.51,0.04 0.77,0.04c1.02,0 2.05,-0.15 3.07,-0.15c0.69,0 1.38,0.07 2.06,0.31c1.32,1.06 2.36,2.38 4.01,2.99c3.75,-0.87 7.41,-3.2 11.29,-3.2c0.32,0 0.65,0.02 0.98,0.05c0.03,0.17 0.07,0.3 0.1,0.44c0.01,0.59 -0.6,0.72 -0.84,1.15c-1.03,1.89 -0.77,4.73 0.12,6.55c0.33,0.46 0.87,0.73 1.37,0.96c0.17,0.02 0.36,0.03 0.54,0.04c4.61,-1.02 8.66,-4.23 10.34,-8.73c0.12,-0.88 0.81,-1.87 0.39,-2.71c-0.93,0 -1.67,0.73 -2.52,1.03c-0.78,0.16 -1.66,0.26 -2.54,0.26c-2.42,0 -4.92,-0.75 -5.86,-3.02l0.56,-0.5c0.94,0.82 2.16,1.12 3.37,1.24c1.05,-0.13 2.04,-0.48 3.09,-0.66c1.28,-0.42 2.48,-1.07 3.74,-1.54c1.27,-0.47 2.51,-1.96 3.83,-1.96m-37.26,19.79c0.14,0 0.29,-0.01 0.44,-0.02c1.83,-2.43 1.18,-6.61 -1.35,-8.41c-2.41,0.1 -5.15,2.31 -4.22,4.93c0.79,2.21 2.88,3.5 5.13,3.5m-18.52,-14.9c1.35,0 3.05,0.13 3.98,0.68c1.08,0.58 2.22,1.25 2.82,2.36c0.19,1.8 -2.14,2.5 -2.95,3.94c-1.06,0.42 -1.61,1.57 -2.63,2.11c-0.84,0.09 -1.65,0.6 -2.15,1.26c1.48,1.61 3.59,2.83 5.21,4.36c0.66,0.6 1.33,1.22 1.87,1.92c1.45,1.57 3.57,3.23 3.82,5.41c-0.23,0.05 -0.48,0.07 -0.72,0.07c-1.45,0 -2.98,-0.79 -4.45,-0.91c-0.28,0.13 -0.58,0.19 -0.89,0.19c-0.06,0 -0.13,0 -0.19,-0.01c-0.44,-0.22 -0.88,-0.47 -1.19,-0.86c-1.99,-1.28 -3.3,-3.4 -5.05,-4.96c-1.33,-0.87 -2.2,-2.52 -3.59,-3.09c-1.12,2.31 -1.01,5.31 -2.77,7.27c0.04,0.14 -0.01,0.39 -0.03,0.58c-0.06,0.09 -0.14,0.18 -0.21,0.26c-0.05,0.03 -0.12,0.04 -0.19,0.04c-0.18,0 -0.39,-0.07 -0.49,-0.15c-2.33,-4.31 -0.37,-9.39 0.56,-13.83c-0.13,-0.04 -0.25,-0.05 -0.37,-0.05c-0.61,0 -1.22,0.39 -1.81,0.39c-0.16,0 -0.32,-0.03 -0.47,-0.1c-0.34,-0.5 0.24,-0.92 0.39,-1.34c-0.02,-0.09 -0.04,-0.15 -0.07,-0.3c0.03,-0.2 0.1,-0.45 0.24,-0.63c1.92,-0.86 3.72,-1.97 5.61,-2.88c0.47,-0.39 1.06,-0.59 1.61,-0.86c0.2,-0.18 0.42,-0.32 0.66,-0.44c0,0 0.08,-0.06 0.09,-0.06c0.01,0 0,0.01 -0.02,0.02c0.13,-0.05 0.25,-0.12 0.38,-0.16c0.32,-0.1 0.61,-0.14 0.9,-0.14c0.03,0 0.06,0 0.09,0c0,0 0.89,-0.09 2.01,-0.09m-5.1,7.74c0.95,-0.12 2.05,-0.89 2.18,-1.87c-0.21,-0.15 -0.42,-0.22 -0.64,-0.22c-0.61,0 -1.26,0.45 -1.85,0.57c-0.03,0.5 -0.04,1.14 0.31,1.52m-1.04,-20.88l-0.03,0l-0.04,0.01l-0.48,0.02l-0.26,0.41c-0.47,0.75 -0.53,1.63 -0.58,2.4c-0.05,0.81 -0.09,1.5 -0.51,1.95c-0.32,0.36 -0.66,0.57 -0.95,0.61c-2.11,-1.31 -4.49,-1.48 -6.34,-1.48c-0.8,0 -1.6,0.04 -2.38,0.07c-0.75,0.03 -1.53,0.06 -2.27,0.06c-0.73,0 -1.36,-0.03 -1.92,-0.1l-0.38,-0.04l-0.3,0.22c-0.28,0.21 -0.63,0.31 -1.09,0.31c-0.63,0 -1.35,-0.19 -2.04,-0.38c-0.38,-0.09 -0.77,-0.2 -1.14,-0.27l-0.54,-0.1l-0.35,0.41c-0.14,0.16 -0.27,0.33 -0.4,0.5c-0.25,0.32 -0.47,0.6 -0.72,0.76c-0.06,0.01 -0.13,0.01 -0.2,0.01c-0.71,0 -1.49,-0.15 -2.31,-0.31c-0.89,-0.17 -1.81,-0.35 -2.72,-0.35c-1.4,0 -2.52,0.43 -3.41,1.32c-1.07,-0.33 -1.99,-0.48 -2.86,-0.48c-0.59,0 -1.16,0.07 -1.69,0.22l-0.34,0.09l-0.19,0.29c-0.24,0.35 -0.36,0.81 -0.33,1.28l0.02,0.28l0.17,0.23c0.57,0.77 1.49,0.86 2.09,0.92c0.03,0 0.06,0 0.08,0c1.16,0.88 2.6,1.32 4.28,1.32c0.36,0 0.75,-0.02 1.13,-0.07c0.98,0.4 1.97,0.56 2.94,0.71c1.07,0.17 2.08,0.33 2.95,0.8l0.05,0.07c0.27,0.32 0.58,0.69 0.98,0.99l0.17,0.12l0.2,0.04c0.23,0.05 0.47,0.07 0.7,0.07c0.95,0 1.78,-0.37 2.51,-0.71c0.37,-0.17 0.74,-0.34 1.07,-0.43c0.02,0.37 0.02,0.76 0.03,1.15c0.01,0.65 0.01,1.32 0.08,1.97l0,0.03l0.01,0.02c0.36,2.27 0.36,4.71 0.35,7.08c-0.01,4.59 -0.02,9.35 2.54,13.5l0.2,0.31l0.34,0.1c0.19,0.06 0.39,0.08 0.59,0.08c0.35,0 0.69,-0.09 0.96,-0.27l0.31,-0.2l0.09,-0.35c1.73,-6.64 2.69,-12.39 2.94,-17.6c0.11,-0.47 0.21,-0.94 0.31,-1.43c0.27,-1.33 0.52,-2.59 1.03,-3.74c1.21,-0.25 2.42,-0.38 3.59,-0.38c2.1,0 3.96,0.41 5.47,1.21c-0.08,0.04 -0.16,0.07 -0.23,0.11c-0.4,0.18 -0.86,0.38 -1.26,0.7c-0.81,0.39 -1.61,0.82 -2.39,1.24c-1.01,0.55 -2.06,1.11 -3.11,1.58l-0.22,0.09l-0.14,0.2c-0.21,0.27 -0.35,0.62 -0.43,1.04l-0.03,0.19l0.03,0.14c0,0 0,0 0,0.01c-0.23,0.34 -0.75,1.13 -0.15,2.01l0.15,0.22l0.24,0.1c0.26,0.12 0.55,0.18 0.85,0.18c0.35,0 0.67,-0.08 0.96,-0.16c-0.08,0.35 -0.17,0.7 -0.26,1.07c-0.94,3.85 -2,8.22 0.09,12.08l0.08,0.16l0.14,0.12c0.27,0.23 0.71,0.37 1.11,0.37c0.21,0 0.42,-0.04 0.59,-0.12l0.2,-0.1l0.14,-0.17l0.05,-0.07c0.07,-0.08 0.14,-0.17 0.2,-0.26l0.13,-0.19l0.03,-0.23l0.01,-0.09c0.01,-0.08 0.02,-0.16 0.03,-0.25c1.03,-1.31 1.42,-2.89 1.79,-4.42c0.15,-0.62 0.29,-1.22 0.48,-1.78c0.29,0.26 0.59,0.58 0.89,0.9c0.5,0.54 1.02,1.09 1.66,1.53c0.64,0.57 1.22,1.23 1.84,1.92c0.94,1.07 1.92,2.17 3.16,3.01c0.4,0.45 0.9,0.74 1.39,0.98l0.17,0.09l0.18,0.01c0.09,0.01 0.19,0.01 0.28,0.01c0.35,0 0.69,-0.05 1.02,-0.16c0.52,0.06 1.07,0.22 1.65,0.39c0.86,0.25 1.74,0.5 2.66,0.5c0.32,0 0.63,-0.03 0.93,-0.1l0.84,-0.18l-0.1,-0.85c-0.24,-2.07 -1.79,-3.63 -3.16,-5.01c-0.3,-0.31 -0.6,-0.61 -0.88,-0.91c-0.57,-0.74 -1.25,-1.37 -1.95,-2.01c-0.75,-0.7 -1.59,-1.34 -2.42,-1.96c-0.74,-0.57 -1.45,-1.11 -2.08,-1.68c0.28,-0.18 0.59,-0.3 0.89,-0.33l0.19,-0.01l0.17,-0.1c0.59,-0.32 1.04,-0.78 1.43,-1.18c0.38,-0.39 0.71,-0.73 1.1,-0.89l0.04,-0.01c-0.25,0.91 0.08,1.88 0.34,2.62c0.07,0.21 0.14,0.4 0.19,0.59l0.04,0.15l0.09,0.13c0.31,0.46 0.6,0.92 0.9,1.39c0.78,1.23 1.58,2.5 2.67,3.59l0.07,0.07l0.08,0.05c2,1.32 5.05,3.08 8.51,3.08c0.6,0 1.2,-0.05 1.79,-0.16l0.21,-0.04l0.17,-0.12c0.87,-0.62 1.98,-0.86 3.14,-1.12c0.43,-0.09 0.87,-0.19 1.31,-0.31l0.19,-0.05l0.15,-0.12c0.7,-0.56 1,-1.31 1.27,-1.98c0.11,-0.26 0.21,-0.51 0.32,-0.72c0.55,-0.59 1.14,-1.13 1.77,-1.7c1.15,-1.04 2.33,-2.12 3.18,-3.53l0.06,-0.1l0.04,-0.1c0.04,-0.15 0.08,-0.31 0.12,-0.46c0,-0.02 0,-0.04 0.01,-0.06c0.18,-0.06 0.36,-0.12 0.54,-0.18c0.17,-0.06 0.34,-0.12 0.51,-0.17c0.01,0.53 -0.05,1.12 -0.12,1.73c-0.06,0.6 -0.13,1.21 -0.13,1.81l0,0.03l0,0.03c0.03,0.52 0.08,1.02 0.13,1.53c0.04,0.41 0.08,0.82 0.11,1.24l0.02,0.24l0.13,0.2c0.02,0.04 0.06,0.16 0.08,0.24c0.08,0.25 0.18,0.58 0.44,0.89l0.39,0.48l0.59,-0.17c0.12,-0.03 0.19,-0.03 0.22,-0.03c0.07,0.03 0.21,0.25 0.3,0.39c0.14,0.21 0.3,0.46 0.53,0.71l0.3,0.33l0.45,-0.03c0.43,-0.02 0.79,-0.15 1.11,-0.25c0.27,-0.09 0.5,-0.17 0.69,-0.17l0.21,0l0.2,-0.09c0.61,-0.29 1.24,-0.51 1.92,-0.75c0.66,-0.24 1.35,-0.48 2.03,-0.8c0.06,-0.01 0.11,-0.02 0.17,-0.03c-2.22,3.85 -4.04,7.99 -5.86,12.24l-0.11,0.26l0.05,0.28c0.33,1.85 -0.03,3.68 -0.42,5.62c-0.39,2.01 -0.81,4.08 -0.44,6.28l0.01,0.05l0.02,0.05c0.38,1.31 1.32,2.44 2.63,3.15c0.02,0.08 0.04,0.17 0.06,0.26c0.09,0.45 0.22,1.01 0.68,1.5c0.82,0.82 1.82,1.21 3.1,1.21c0.72,0 1.45,-0.12 2.15,-0.24c0.65,-0.11 1.25,-0.21 1.81,-0.21c0.07,0 0.15,0 0.23,0.01l0.27,0.01l0.24,-0.12c5.89,-3.17 10.76,-7.83 14.07,-13.47l0.02,-0.03l0.01,-0.03l0.06,-0.11c0.28,-0.57 0.56,-1.13 0.85,-1.69l0.04,-0.07l0.02,-0.07c0.03,-0.09 0.11,-0.25 0.19,-0.4c0.3,-0.56 0.99,-1.88 -0.18,-2.76l-0.19,-0.14l-0.23,-0.04c-0.12,-0.01 -0.27,-0.04 -0.44,-0.04c-0.09,0 -0.17,0.01 -0.25,0.02l-0.36,0.05l-0.23,0.27c-0.97,1.13 -1.94,2.35 -2.88,3.53c-3.95,4.97 -8.04,10.11 -14.16,11.4c-0.14,-0.1 -0.28,-0.2 -0.42,-0.3c-0.4,-0.28 -0.79,-0.55 -0.99,-0.84c0.47,-1.12 0.74,-2.36 1.01,-3.57c0.59,-2.73 1.1,-5.09 3.58,-5.87l0.64,-0.21l0.02,-0.67c0.02,-0.72 0.01,-1.48 -0.01,-2.21c-0.04,-1.48 -0.08,-3 0.21,-4.4c1,-1.72 2.43,-3.12 3.94,-4.59c0.69,-0.67 1.4,-1.36 2.06,-2.09l0.09,-0.09l0.06,-0.12c0.37,-0.73 0.75,-1.46 1.13,-2.18c1.18,-2.26 2.4,-4.6 3.2,-7.09l0.04,-0.11l0.01,-0.12c0.15,-2.34 0.17,-4.72 0.2,-7.02c0.02,-2.01 0.05,-4.09 0.15,-6.14l0.04,-0.67l-0.63,-0.26c-0.32,-0.12 -0.65,-0.19 -0.99,-0.19l0,0c-1.09,0 -2.03,0.66 -2.85,1.24c-0.47,0.33 -0.92,0.64 -1.31,0.78c-0.59,0.22 -1.15,0.47 -1.7,0.72c-0.66,0.29 -1.29,0.57 -1.94,0.79c-0.48,0.09 -0.94,0.2 -1.39,0.31c-0.51,0.13 -1,0.25 -1.49,0.32c-1.23,-0.13 -2.09,-0.45 -2.72,-1l-0.63,-0.56l-0.63,0.56l-0.56,0.5l-0.5,0.45l0.26,0.62c0.96,2.33 3.35,3.61 6.73,3.61c0.89,0 1.84,-0.1 2.73,-0.28l0.06,-0.01l0.07,-0.03c0.38,-0.13 0.72,-0.33 1.05,-0.51c0.06,-0.03 0.11,-0.06 0.17,-0.1c-0.02,0.07 -0.04,0.13 -0.06,0.19c-0.11,0.31 -0.22,0.63 -0.28,0.97c-1.5,3.95 -5.12,7.01 -9.49,8.02c-0.07,0 -0.14,-0.01 -0.22,-0.01c-0.3,-0.15 -0.61,-0.32 -0.79,-0.54c-0.73,-1.53 -0.97,-4.02 -0.11,-5.6c0.02,-0.01 0.1,-0.08 0.16,-0.13c0.28,-0.23 0.81,-0.67 0.8,-1.49l0,-0.1l-0.03,-0.1l-0.01,-0.05c-0.03,-0.12 -0.06,-0.23 -0.09,-0.37l-0.14,-0.67l-0.68,-0.07c-0.36,-0.04 -0.72,-0.06 -1.09,-0.06c-2.56,0 -4.99,0.93 -7.33,1.83c-1.34,0.52 -2.61,1 -3.88,1.32c-0.89,-0.39 -1.61,-1.05 -2.37,-1.74c-0.35,-0.33 -0.72,-0.67 -1.12,-0.99l-0.13,-0.1l-0.15,-0.06c-0.71,-0.24 -1.46,-0.36 -2.38,-0.36c-0.54,0 -1.08,0.04 -1.6,0.08c-0.51,0.04 -0.98,0.07 -1.46,0.07c-0.15,0 -0.28,0 -0.41,-0.01c-0.13,-0.12 -0.31,-0.28 -0.58,-0.39l-0.25,-0.12l-0.28,0.05c-1.43,0.22 -2.64,0.88 -3.81,1.52c-0.95,0.52 -1.86,1.02 -2.83,1.24l-0.18,0.04l-0.15,0.11c-0.62,0.43 -1.28,0.8 -1.98,1.18c-0.73,0.4 -1.47,0.81 -2.18,1.31c-0.01,0 -0.01,0 -0.02,0c-0.01,0 -0.02,0 -0.04,0c0,0 -0.01,0 -0.01,0c-0.13,0 -0.31,0.01 -0.5,0.05c0.12,-0.11 0.25,-0.22 0.38,-0.33c0.92,-0.76 2.07,-1.71 1.9,-3.32l-0.02,-0.19l-0.09,-0.16c-0.73,-1.34 -2.04,-2.12 -3.2,-2.75c-0.88,-0.52 -2.38,-0.79 -4.43,-0.79c-0.28,0 -0.54,0.01 -0.78,0.02c0.06,-4.66 -2.27,-8.81 -4.04,-11.55l-0.1,-0.16l-0.16,-0.11c-0.03,-0.01 -0.58,-0.38 -1.07,-0.38l0,0zm24.58,27.09c-1.92,-0.03 -3.54,-1.15 -4.15,-2.87c-0.25,-0.68 -0.15,-1.35 0.28,-1.98c0.57,-0.86 1.67,-1.51 2.75,-1.65c0.87,0.72 1.47,1.86 1.67,3.15c0.19,1.24 -0.01,2.43 -0.55,3.35l0,0z"/>
   </g>
  </g>
 </g>

</svg>